<?xml version="1.0" encoding="utf-8"?>
<!-- Generator: Adobe Illustrator 22.1.0, SVG Export Plug-In . SVG Version: 6.00 Build 0)  -->
<svg version="1.1" id="Layer_1" xmlns="http://www.w3.org/2000/svg" xmlns:xlink="http://www.w3.org/1999/xlink" x="0px" y="0px"
	 viewBox="0 0 31 44.3" style="enable-background:new 0 0 31 44.3;" xml:space="preserve">
<style type="text/css">
	.st0{fill:#6C9C5A;}
</style>
<g id="Glyph_copy_2">
	<path class="st0" d="M18.6,19.4c0-1.7-1.4-3.1-3.1-3.1c-1.7,0-3.2,1.4-3.2,3.1c0,1.7,1.4,3.1,3.2,3.1
		C17.2,22.5,18.6,21.1,18.6,19.4z"/>
	<path class="st0" d="M15.5,32.1l1.3-1.7c1.3-1.8,5.7-7.8,5.7-11.1c0-4.3-2.8-7.2-7-7.2c-4.2,0-7,2.9-7,7.2c0,3.5,5.1,10.3,5.7,11.1
		L15.5,32.1z M11.1,19.4c0-2.4,2-4.4,4.4-4.4c2.4,0,4.4,2,4.4,4.4c0,2.4-2,4.4-4.4,4.4C13.1,23.8,11.1,21.8,11.1,19.4z"/>
</g>
</svg>
